HIERARCHY
ROOT Hips
{
	OFFSET -0.179506 -22.333345 2.821913
	CHANNELS 6 Xposition Yposition Zposition Zrotation Yrotation Xrotation 
	JOINT LeftUpLeg
	{
		OFFSET 6.951974 -9.140623 -0.681533
		CHANNELS 3 Zrotation Yrotation Xrotation
		JOINT LeftLeg
		{
			OFFSET 3.427654 -37.519855 -0.449580
			CHANNELS 3 Zrotation Yrotation Xrotation
			JOINT LeftFoot
			{
				OFFSET -1.359570 -39.796059 -4.369333
				CHANNELS 3 Zrotation Yrotation Xrotation
				JOINT LeftToe
				{
					OFFSET 2.635814 -5.579078 11.928840
					CHANNELS 3 Zrotation Yrotation Xrotation
					End Site
					{
						OFFSET 0.000000 0.000000 0.000000
					}
				}
			}
		}
	}
	JOINT RightUpLeg
	{
		OFFSET -6.767048 -9.052170 -0.431982
		CHANNELS 3 Zrotation Yrotation Xrotation
		JOINT RightLeg
		{
			OFFSET -3.829005 -38.256897 -0.885003
			CHANNELS 3 Zrotation Yrotation Xrotation
			JOINT RightFoot
			{
				OFFSET 1.577377 -39.841461 -4.231180
				CHANNELS 3 Zrotation Yrotation Xrotation
				JOINT RightToe
				{
					OFFSET -2.537174 -4.814398 12.334795
					CHANNELS 3 Zrotation Yrotation Xrotation
					End Site
					{
						OFFSET 0.000000 0.000000 0.000000
					}
				}
			}
		}
	}
	JOINT Spine
	{
		OFFSET -0.253288 10.896323 -2.669631
		CHANNELS 3 Zrotation Yrotation Xrotation
		JOINT Spine1
		{
			OFFSET 0.548704 13.518043 0.109247
			CHANNELS 3 Zrotation Yrotation Xrotation
			JOINT Spine2
			{
				OFFSET 0.145701 5.292222 2.542457
				CHANNELS 3 Zrotation Yrotation Xrotation
				JOINT Neck
				{
					OFFSET -0.277840 21.387037 -4.285703
					CHANNELS 3 Zrotation Yrotation Xrotation
					JOINT Head
					{
						OFFSET 0.515184 6.496960 5.134897
						CHANNELS 3 Zrotation Yrotation Xrotation
						End Site
						{
							OFFSET 0.000000 0.000000 0.000000
						}
					}
				}
				JOINT LeftShoulder
				{
					OFFSET 7.884473 12.174932 -3.408961
					CHANNELS 3 Zrotation Yrotation Xrotation
					JOINT LeftArm
					{
						OFFSET 9.097692 3.046888 -0.886815
						CHANNELS 3 Zrotation Yrotation Xrotation
						JOINT LeftForeArm
						{
							OFFSET 25.961220 -1.277207 -2.745643
							CHANNELS 3 Zrotation Yrotation Xrotation
							JOINT LeftHand
							{
								OFFSET 24.923361 0.898606 -0.117091
								CHANNELS 3 Zrotation Yrotation Xrotation
								End Site
								{
									OFFSET 0.000000 0.000000 0.000000
								}
							}
						}
					}
				}
				JOINT RightShoulder
				{
					OFFSET -8.175920 11.883285 -3.861528
					CHANNELS 3 Zrotation Yrotation Xrotation
					JOINT RightArm
					{
						OFFSET -9.601238 3.255117 -0.914307
						CHANNELS 3 Zrotation Yrotation Xrotation
						JOINT RightForeArm
						{
							OFFSET -25.374195 -1.332924 -2.140099
							CHANNELS 3 Zrotation Yrotation Xrotation
							JOINT RightHand
							{
								OFFSET -25.529810 0.777228 -0.555919
								CHANNELS 3 Zrotation Yrotation Xrotation
								End Site
								{
									OFFSET 0.000000 0.000000 0.000000
								}
							}
						}
					}
				}
			}
		}
	}
}
MOTION
Frames: 11
Frame Time: 0.033333
-0.179506 138.449387 2.821913 0.436227 -2.282389 -1.271274 1.543528 4.584521 1.877690 -1.023009 0.689439 -2.492005 3.079423 15.068984 -10.757373 0.733043 -0.840006 -1.226573 -2.382131 -5.932276 -0.577664 -0.994687 -1.070914 -0.082658 2.559010 -12.739461 -6.793418 1.283559 0.562952 -1.948002 -1.918746 2.179084 10.799210 0.852147 -2.884047 -2.360807 -0.154332 -0.676556 0.719822 1.205993 -9.894017 -7.246348 4.857488 -8.135541 -11.380785 -16.632339 -8.378822 -2.118913 -24.444732 -8.665088 5.370309 -4.967462 -22.102548 5.897489 -5.074176 -9.163005 9.329022 15.757722 12.544871 0.330228 28.219591 8.772884 8.108080 4.795942 25.339428 10.081965 6.642392 5.496237 13.803299 
-0.219371 138.458664 3.086177 0.482545 -2.520475 -1.007163 1.488654 4.592269 1.889899 -1.014910 0.693785 -2.674759 3.142456 15.258411 -10.648233 0.710637 -0.841246 -1.222895 -2.399091 -6.057004 -0.545313 -1.002044 -0.947386 -0.427626 2.694638 -12.550251 -6.777281 1.238904 0.573631 -1.933857 -1.898757 2.252966 10.856886 0.771948 -2.860098 -2.463198 -0.142177 -0.627802 0.800048 1.290675 -9.968630 -7.479831 4.908563 -8.244368 -11.528620 -16.558433 -8.304590 -2.183795 -24.710907 -8.616131 5.493616 -4.843141 -21.986482 5.768873 -5.165677 -8.958157 9.200081 15.558188 12.572853 0.303707 28.564356 8.876387 8.243875 4.808000 24.870397 10.288076 6.766148 5.167121 13.907469 
-0.249068 138.467239 3.173945 0.474675 -2.680323 -0.928487 1.516760 4.562569 1.849094 -1.026830 0.609908 -2.614551 3.188142 15.468064 -10.611332 0.728578 -0.850411 -1.214710 -2.385999 -6.167231 -0.591330 -0.976649 -0.869749 -0.437630 2.775967 -12.378884 -6.811858 1.232674 0.572317 -1.934032 -1.864172 2.287381 11.119071 0.740162 -2.781571 -2.630234 -0.112677 -0.615588 0.912637 1.359653 -10.030197 -7.760791 5.003259 -8.295642 -11.813413 -16.536235 -8.254458 -2.258582 -24.926691 -8.684754 5.415473 -4.682985 -22.201410 5.325695 -4.983041 -9.022848 8.765822 15.412583 12.576020 0.259331 28.752973 8.923111 8.174727 4.799855 24.832416 10.136861 6.693600 5.023912 13.799484 
-0.202614 138.474930 3.238935 0.429648 -2.721935 -0.848003 1.504967 4.465739 1.841667 -0.975945 0.407227 -2.679693 3.281705 15.681480 -10.539453 0.751425 -0.833912 -1.233437 -2.374417 -6.175655 -0.644507 -0.967066 -0.750848 -0.420348 2.793567 -12.391212 -6.783633 1.218651 0.565239 -1.915421 -1.825015 2.293989 11.306752 0.692669 -2.759661 -2.780812 -0.071474 -0.631174 1.001784 1.379143 -10.098675 -7.939105 5.032124 -8.371894 -12.050420 -16.465629 -8.186354 -2.341029 -25.191066 -8.774765 5.422332 -4.576255 -22.449657 5.165020 -4.768023 -9.087391 8.248806 15.248447 12.536443 0.176391 29.001619 9.022992 8.168673 4.740271 24.641434 10.107873 6.666907 4.937418 13.581673 
-0.163643 138.485382 3.234776 0.380948 -2.789359 -0.790329 1.560055 4.444911 1.730221 -1.033821 0.345196 -2.568064 3.271173 15.766403 -10.564686 0.767290 -0.822685 -1.233190 -2.358143 -6.145233 -0.734742 -0.936621 -0.676125 -0.384967 2.813521 -12.400521 -6.722434 1.206231 0.562505 -1.909442 -1.784186 2.271672 11.508823 0.627833 -2.740269 -2.950950 -0.039334 -0.646885 1.143174 1.424747 -10.197053 -8.223338 5.052505 -8.530992 -12.308154 -16.424582 -8.094120 -2.442983 -25.418195 -8.811368 5.417172 -4.419962 -22.698510 5.075553 -4.521831 -9.135535 7.813325 15.167816 12.523399 0.052622 29.198538 9.090961 8.146651 4.661168 24.594213 10.101023 6.546725 4.956935 13.365042 
-0.049268 138.497681 3.154114 0.301614 -2.867830 -0.708663 1.587709 4.326456 1.515302 -1.089949 0.330796 -2.408352 3.378295 15.885072 -10.541810 0.785254 -0.810893 -1.255103 -2.356644 -5.993686 -0.936195 -0.903092 -0.519151 -0.291250 2.822881 -12.536799 -6.559064 1.175456 0.559839 -1.910373 -1.759244 2.248926 11.493824 0.591880 -2.734576 -2.965440 -0.027830 -0.670028 1.098873 1.498421 -10.331080 -8.431453 5.091930 -8.631823 -12.496706 -16.462186 -8.003164 -2.450680 -25.507661 -8.722777 5.573788 -4.394030 -22.850337 5.091673 -4.540430 -9.120298 7.482258 15.141980 12.487608 0.017203 29.338717 9.090967 8.249342 4.666142 24.558085 10.331608 6.665693 4.932893 13.116912 
0.086852 138.514206 2.889734 0.274281 -2.967573 -0.789400 1.466539 4.163484 1.368806 -0.999419 0.380887 -2.298699 3.408119 16.071314 -10.510224 0.766848 -0.821322 -1.241978 -2.353090 -5.804537 -0.994156 -1.013539 -0.389641 -0.393197 2.899638 -12.655708 -6.252991 1.175281 0.554463 -1.879893 -1.774031 2.242541 11.627501 0.530376 -2.683575 -3.122117 -0.025743 -0.695721 1.135290 1.473446 -10.380880 -8.588844 5.179785 -8.593388 -12.719803 -16.366412 -7.838920 -2.496487 -25.634636 -8.628378 5.718013 -4.487630 -23.048802 5.033810 -4.866715 -9.083159 6.855589 15.021256 12.345916 -0.060392 29.528040 8.936410 8.413155 4.795967 25.019590 10.284738 6.951792 4.969855 12.395034 
0.365404 138.525101 2.715075 0.185239 -3.059599 -0.790640 1.381033 4.109328 1.156597 -1.056693 0.639732 -2.104878 3.446313 16.066103 -10.645546 0.762028 -0.832617 -1.236034 -2.408274 -5.666379 -1.042246 -1.073203 -0.362624 -0.568558 3.082770 -12.704183 -5.882488 1.147955 0.562722 -1.861688 -1.795015 2.240780 11.713043 0.476955 -2.645512 -3.233375 -0.031117 -0.706042 1.130549 1.508898 -10.362495 -8.756710 5.172086 -8.531634 -12.881078 -16.366261 -7.651087 -2.522061 -25.780756 -8.442419 5.933049 -4.622725 -23.187843 5.218685 -5.441705 -8.994399 6.390642 15.007291 12.153196 -0.124787 29.713136 8.743452 8.543362 4.831828 25.303530 10.204705 7.436446 4.931878 11.709507 
0.674419 138.528168 2.705877 0.098037 -3.109965 -0.543182 1.292867 4.057771 0.747962 -1.177368 1.000754 -1.828507 3.398161 15.938536 -10.938582 0.780380 -0.872655 -1.235688 -2.512032 -5.555100 -1.271340 -1.058232 -0.524075 -0.701623 3.258253 -12.666064 -5.562067 1.160371 0.552898 -1.831108 -1.790755 2.225149 11.710376 0.450446 -2.632654 -3.303490 -0.043233 -0.700075 1.087411 1.551992 -10.453078 -8.974086 5.225689 -8.633185 -13.252123 -16.534985 -7.486487 -2.481119 -26.062286 -8.337154 6.104837 -4.545377 -23.072395 5.338609 -6.043596 -8.899252 6.248309 15.112121 11.988888 -0.108561 29.891422 8.626218 8.556266 4.767055 25.394161 10.152153 7.951593 5.033588 11.341614 
1.006481 138.527832 2.470708 0.026839 -3.044761 -0.511605 1.134908 4.021184 0.305135 -1.209535 1.400830 -1.380408 3.435496 15.735072 -11.205987 0.769340 -0.854542 -1.214806 -2.606345 -5.416264 -1.520727 -1.137579 -0.612795 -0.614033 3.465984 -12.771011 -5.286521 1.189722 0.525078 -1.787533 -1.820294 2.222182 11.798831 0.431848 -2.553067 -3.339360 -0.025281 -0.710914 1.014691 1.662487 -10.561051 -9.277056 5.246636 -8.527641 -13.567437 -16.709062 -7.285945 -2.443030 -26.190767 -8.181763 6.284179 -4.671685 -23.475174 5.382869 -6.603671 -8.872294 5.857572 15.268066 11.821003 -0.097995 30.053050 8.470417 8.586819 4.630724 25.786283 9.829617 8.357660 5.217442 10.940743 
1.249505 138.518677 2.349198 -0.027510 -3.045841 -0.559322 1.054289 3.984920 -0.049607 -1.289013 1.834271 -0.759661 3.498643 15.592848 -11.556663 0.773741 -0.836176 -1.205880 -2.695899 -5.262152 -1.729905 -1.173968 -0.673946 -0.285531 3.569939 -12.838342 -5.261648 1.208545 0.491349 -1.731519 -1.857658 2.222646 11.869767 0.402026 -2.488606 -3.361547 -0.042319 -0.715428 0.995631 1.830562 -10.736037 -9.653777 5.291387 -8.647599 -13.945044 -16.951830 -7.020847 -2.404336 -26.390616 -8.067058 6.326411 -4.423116 -23.743776 5.153272 -7.246916 -8.838378 5.555253 15.496257 11.664994 -0.101468 30.460426 8.356391 8.548360 4.224176 25.982221 9.285645 8.829147 5.329285 10.572376 
